<?xml version="1.0" standalone="no"?>
<!DOCTYPE svg PUBLIC "-//W3C//DTD SVG 20010904//EN"
        "http://www.w3.org/TR/2001/REC-SVG-20010904/DTD/svg10.dtd">
<svg version="1.0" xmlns="http://www.w3.org/2000/svg"
     width="780.000000pt" height="750.000000pt" viewBox="0 0 780.000000 750.000000"
     preserveAspectRatio="xMidYMid meet">

    <g transform="translate(0.000000,750.000000) scale(0.100000,-0.100000)" stroke="none">
        <path d="M2185 7180 c-430 -77 -790 -261 -1099 -559 -353 -342 -571 -781 -626
-1261 -8 -66 -10 -583 -7 -1695 3 -1754 -1 -1619 62 -1867 70 -272 220 -566
403 -791 86 -105 285 -292 388 -366 272 -193 549 -310 884 -372 l125 -24 1535
-3 c1093 -2 1571 0 1660 8 487 44 915 241 1264 579 286 278 479 608 575 984
63 246 61 180 61 1912 0 1396 -2 1589 -16 1688 -131 910 -834 1624 -1744 1772
-83 13 -304 15 -1730 14 -1528 -1 -1642 -2 -1735 -19z m3830 -2422 c-2 -7 -72
-240 -154 -518 -141 -474 -391 -1244 -410 -1263 -8 -8 -693 282 -714 302 -6 6
1269 1491 1280 1491 1 0 0 -6 -2 -12z m-81 -10 c-13 -22 -163 -206 -283 -348
-182 -215 -407 -464 -574 -637 l-155 -160 -167 174 -166 173 33 20 c18 11 321
193 673 404 352 212 641 385 643 386 2 0 0 -6 -4 -12z m-2659 -878 c655 -314
1196 -575 1204 -580 9 -4 -317 -118 -857 -298 l-870 -290 -428 872 c-235 479
-440 897 -455 928 l-29 57 123 -58 c67 -32 657 -316 1312 -631z m1325 6 c161
-167 292 -307 292 -311 0 -4 -52 -67 -117 -141 -110 -126 -120 -134 -154 -134
-27 0 -138 50 -438 197 -222 109 -403 201 -403 204 0 9 511 489 520 489 4 0
139 -137 300 -304z m450 -790 l385 -154 -40 -11 c-356 -95 -926 -172 -1590
-216 -230 -15 -985 -38 -993 -30 -7 7 67 35 293 110 454 150 1511 466 1540
460 11 -3 193 -74 405 -159z"/>
    </g>
</svg>
