<svg xmlns="http://www.w3.org/2000/svg" xmlns:xlink="http://www.w3.org/1999/xlink" xmlns:lucid="lucid" width="2224.79" height="1483.25"><g transform="translate(-537.2146519747644 122)" lucid:page-tab-id="0_0"><path d="M677.7 600c22.1 0 40 17.9 40 40s-17.9 40-40 40h-80c-22.08 0-40-17.9-40-40s17.92-40 40-40z" stroke="#3a414a" fill="#00c2a8"/><use xlink:href="#a" transform="matrix(1,0,0,1,562.7146519747644,605) translate(51.574074074074076 39.44444444444444)"/><path d="M1200 906a6 6 0 0 1 6-6h148a6 6 0 0 1 6 6v108a6 6 0 0 1-6 6h-148a6 6 0 0 1-6-6z" stroke="#3a414a" fill="#6db1ff"/><use xlink:href="#b" transform="matrix(1,0,0,1,1212,912) translate(2.074074074074076 52.44444444444444)"/><use xlink:href="#c" transform="matrix(1,0,0,1,1212,912) translate(55.03703703703704 52.44444444444444)"/><path d="M1200 586a6 6 0 0 1 6-6h148a6 6 0 0 1 6 6v108a6 6 0 0 1-6 6h-148a6 6 0 0 1-6-6z" stroke="#3a414a" fill="#6db1ff"/><use xlink:href="#d" transform="matrix(1,0,0,1,1212,592) translate(5.746913580246904 52.44444444444444)"/><path d="M955.2 583.6a8 8 0 0 1 9.6 0l70.4 52.8a4.5 4.5 0 0 1 0 7.2l-70.4 52.8a8 8 0 0 1-9.6 0l-70.4-52.8a4.5 4.5 0 0 1 0-7.2z" stroke="#1071e5" stroke-width="3" fill="#fff"/><use xlink:href="#e" transform="matrix(1,0,0,1,885,585) translate(47.59907407407408 59.48888888888888)"/><path d="M718.7 640h146.4" stroke="#3a414a" fill="none"/><path d="M718.73 640.5h-.55l.04-.5-.02-.5h.53z" stroke="#3a414a" stroke-width=".05" fill="#3a414a"/><path d="M879.88 640l-14.27 4.63v-9.26z" stroke="#3a414a" fill="#3a414a"/><path d="M955.2 903.6a8 8 0 0 1 9.6 0l70.4 52.8a4.5 4.5 0 0 1 0 7.2l-70.4 52.8a8 8 0 0 1-9.6 0l-70.4-52.8a4.5 4.5 0 0 1 0-7.2z" stroke="#1071e5" stroke-width="3" fill="#fff"/><use xlink:href="#f" transform="matrix(1,0,0,1,885,905) translate(41.39567901234568 46.022222222222226)"/><use xlink:href="#g" transform="matrix(1,0,0,1,885,905) translate(35.72222222222223 72.95555555555555)"/><path d="M1100.7 961h-61.2v-2h61.2zm80.3 0h-43.7v-2h43.7z" stroke="#7ab648" stroke-width=".05" fill="#7ab648"/><path d="M1039.53 961h-1.12l.1-1-.1-1h1.13z" fill="#7ab648"/><path d="M1039.56 961.02h-1.17l.08-1.02-.1-1.02h1.18zm-1.12-2l.1.98-.1.98h1.07V959z" stroke="#7ab648" stroke-width=".05" fill="#7ab648"/><path d="M1196.26 960l-14.26 4.63v-9.26z" fill="#7ab648"/><path d="M1199.5 960l-18.5 6v-12zm-16.5 3.26l10.03-3.26-10.03-3.26z" stroke="#7ab648" stroke-width=".05" fill="#7ab648"/><use xlink:href="#h" transform="matrix(1,0,0,1,1100.7047836546358,946.5333333333333) translate(0.004999999999999005 17.955555555555552)"/><path d="M961 1221h-2v-90.66h2zm0-117.6h-2v-82.9h2z" stroke="#c92d39" stroke-width=".05" fill="#c92d39"/><path d="M960 1019.5l1-.06v1.1h-2v-1.1z" fill="#c92d39"/><path d="M960 1019.48l1.02-.07v1.15H959v-1.14zm-.98 1.02H961v-1.03l-.98.06-.98-.06z" stroke="#c92d39" stroke-width=".05" fill="#c92d39"/><path d="M960 1236.26l-4.63-14.26h9.26z" fill="#c92d39"/><path d="M960 1239.5l-6-18.5h12zm-3.26-16.5l3.26 10.03 3.26-10.03z" stroke="#c92d39" stroke-width=".05" fill="#c92d39"/><use xlink:href="#i" transform="matrix(1,0,0,1,945.6916666666667,1103.4040973252359) translate(0.005000000000000782 17.955555555555552)"/><path d="M1000 1240c22.1 0 40 17.9 40 40s-17.9 40-40 40h-80c-22.1 0-40-17.9-40-40s17.9-40 40-40z" stroke="#3a414a" fill="#00c2a8"/><use xlink:href="#j" transform="matrix(1,0,0,1,885,1245) translate(55.67283950617284 39.48888888888889)"/><path d="M1100.7 641h-61.2v-2h61.2zm80.3 0h-43.7v-2h43.7z" stroke="#7ab648" stroke-width=".05" fill="#7ab648"/><path d="M1039.53 641h-1.12l.1-1-.1-1h1.13z" fill="#7ab648"/><path d="M1039.56 641.02h-1.17l.08-1.02-.1-1.02h1.18zm-1.12-2l.1.98-.1.98h1.07V639z" stroke="#7ab648" stroke-width=".05" fill="#7ab648"/><path d="M1196.26 640l-14.26 4.63v-9.26z" fill="#7ab648"/><path d="M1199.5 640l-18.5 6v-12zm-16.5 3.26l10.03-3.26-10.03-3.26z" stroke="#7ab648" stroke-width=".05" fill="#7ab648"/><use xlink:href="#h" transform="matrix(1,0,0,1,1100.7047836546358,626.5333333333333) translate(0.004999999999999005 17.955555555555552)"/><path d="M961 882h-2v-68.53h2zm0-95.47h-2V700.5h2z" stroke="#c92d39" stroke-width=".05" fill="#c92d39"/><path d="M960 699.5l1-.06v1.1h-2v-1.1z" fill="#c92d39"/><path d="M960 699.48l1.02-.07v1.15H959v-1.14zm-.98 1.02H961v-1.03l-.98.06-.98-.06z" stroke="#c92d39" stroke-width=".05" fill="#c92d39"/><path d="M960 897.26L955.37 883h9.26z" fill="#c92d39"/><path d="M960 900.5l-6-18.5h12zm-3.26-16.5L960 894l3.26-10.02z" stroke="#c92d39" stroke-width=".05" fill="#c92d39"/><use xlink:href="#i" transform="matrix(1,0,0,1,945.6916666666667,786.5333333333333) translate(0.005000000000000782 17.955555555555552)"/><path d="M1361 640h142.12" stroke="#3a414a" fill="none"/><path d="M1361 640.5h-.5v-1h.5z" stroke="#3a414a" stroke-width=".05" fill="#3a414a"/><path d="M1517.88 640l-14.26 4.63v-9.26z" stroke="#3a414a" fill="#3a414a"/><path d="M1600 579V332a12 12 0 0 1 12-12h211.12" stroke="#3a414a" fill="none"/><path d="M1600.5 579.5h-1v-.5h1z" stroke="#3a414a" stroke-width=".05" fill="#3a414a"/><path d="M1837.88 320l-14.26 4.63v-9.26z" stroke="#3a414a" fill="#3a414a"/><path d="M1600 701v247.5a12 12 0 0 0 12 12h211.12" stroke="#3a414a" fill="none"/><path d="M1600.5 701h-1v-.5h1z" stroke="#3a414a" stroke-width=".05" fill="#3a414a"/><path d="M1837.88 960.5l-14.26 4.63v-9.26z" stroke="#3a414a" fill="#3a414a"/><path d="M1520 586a6 6 0 0 1 6-6h148a6 6 0 0 1 6 6v108a6 6 0 0 1-6 6h-148a6 6 0 0 1-6-6z" stroke="#3a414a" fill="#6db1ff"/><use xlink:href="#k" transform="matrix(1,0,0,1,1532,592) translate(13.19814814814815 52.48888888888888)"/><path d="M1920 260v48a12 12 0 0 0 12 12h211.12" stroke="#3a414a" fill="none"/><path d="M1920.5 260h-1v-.5h1z" stroke="#3a414a" stroke-width=".05" fill="#3a414a"/><path d="M2157.88 320l-14.26 4.63v-9.26z" stroke="#3a414a" fill="#3a414a"/><path d="M2160 266a6 6 0 0 1 6-6h148a6 6 0 0 1 6 6v108a6 6 0 0 1-6 6h-148a6 6 0 0 1-6-6z" stroke="#3a414a" fill="#6db1ff"/><use xlink:href="#l" transform="matrix(1,0,0,1,2172,272) translate(34.39567901234568 39.022222222222226)"/><use xlink:href="#m" transform="matrix(1,0,0,1,2172,272) translate(21.895370370370387 65.95555555555555)"/><path d="M2001 640h142.12" stroke="#3a414a" fill="none"/><path d="M2001 640.5h-.5v-1h.5z" stroke="#3a414a" stroke-width=".05" fill="#3a414a"/><path d="M2157.88 640l-14.26 4.63v-9.26z" stroke="#3a414a" fill="#3a414a"/><path d="M2160 586a6 6 0 0 1 6-6h148a6 6 0 0 1 6 6v108a6 6 0 0 1-6 6h-148a6 6 0 0 1-6-6z" stroke="#3a414a" fill="#6db1ff"/><use xlink:href="#l" transform="matrix(1,0,0,1,2172,592) translate(34.39567901234568 39.022222222222226)"/><use xlink:href="#n" transform="matrix(1,0,0,1,2172,592) translate(33.14876543209877 65.95555555555555)"/><path d="M1840 586.25a6 6 0 0 1 6-6h132a6 6 0 0 1 6 6v96c-24.05-17.03-39.02-17.03-48.1-17.03-14.4 0-33.55 17.03-47.95 17.03-8.93 0-24.05 0-47.95-17.03z" stroke="#3a414a" fill="#6db1ff"/><path d="M1848 595.25a6 6 0 0 1 6-6h132a6 6 0 0 1 6 6v96c-24.05-17.03-39.02-17.03-48.1-17.03-14.4 0-33.55 17.03-47.95 17.03-8.93 0-24.05 0-47.95-17.03z" stroke="#3a414a" fill="#6db1ff"/><path d="M1856 604.25a6 6 0 0 1 6-6h132a6 6 0 0 1 6 6v96c-24.05-17.03-39.02-17.03-48.1-17.03-14.4 0-33.55 17.03-47.95 17.03-8.93 0-24.05 0-47.95-17.03z" stroke="#3a414a" fill="#6db1ff"/><use xlink:href="#o" transform="matrix(1,0,0,1,1868,610.2499750000002) translate(35.96574074074074 21.522222222222222)"/><use xlink:href="#p" transform="matrix(1,0,0,1,1868,610.2499750000002) translate(19.537654320987663 48.45555555555555)"/><path d="M2321 640h78.88a.13.13 0 0 1 .12.13.13.13 0 0 0 .13.12h63" stroke="#3a414a" fill="none"/><path d="M2321 640.5h-.5v-1h.5z" stroke="#3a414a" stroke-width=".05" fill="#3a414a"/><path d="M2477.88 640.25l-14.26 4.63v-9.26z" stroke="#3a414a" fill="#3a414a"/><path d="M2480 586.25a6 6 0 0 1 6-6h148a6 6 0 0 1 6 6v114c-26.72-20.04-43.36-20.04-53.44-20.04-16 0-37.28 20.05-53.28 20.05-9.92 0-26.72 0-53.28-20.04z" stroke="#3a414a" fill="#6db1ff"/><use xlink:href="#q" transform="matrix(1,0,0,1,2492,592.2499750000002) translate(5.997222222222234 42.48888888888889)"/><use xlink:href="#n" transform="matrix(1,0,0,1,2492,592.2499750000002) translate(60.300308641975306 42.48888888888889)"/><path d="M2321 320h142.12" stroke="#3a414a" fill="none"/><path d="M2321 320.5h-.5v-1h.5z" stroke="#3a414a" stroke-width=".05" fill="#3a414a"/><path d="M2477.88 320l-14.26 4.63v-9.26z" stroke="#3a414a" fill="#3a414a"/><path d="M2480 266a6 6 0 0 1 6-6h148a6 6 0 0 1 6 6v114c-26.72-20.04-43.36-20.04-53.44-20.04-16 0-37.28 20.04-53.28 20.04-9.92 0-26.72 0-53.28-20.04z" stroke="#3a414a" fill="#6db1ff"/><use xlink:href="#o" transform="matrix(1,0,0,1,2492,272) translate(43.96574074074074 29.022222222222222)"/><use xlink:href="#m" transform="matrix(1,0,0,1,2492,272) translate(21.895370370370387 55.95555555555555)"/><path d="M2001 960.5h142.12" stroke="#3a414a" fill="none"/><path d="M2001 961h-.5v-1h.5z" stroke="#3a414a" stroke-width=".05" fill="#3a414a"/><path d="M2157.88 960.5l-14.26 4.63v-9.26z" stroke="#3a414a" fill="#3a414a"/><path d="M2160 906.5a6 6 0 0 1 6-6h148a6 6 0 0 1 6 6v108a6 6 0 0 1-6 6h-148a6 6 0 0 1-6-6z" stroke="#3a414a" fill="#6db1ff"/><use xlink:href="#r" transform="matrix(1,0,0,1,2172,912.4999500000004) translate(18.80925925925927 52.48888888888888)"/><use xlink:href="#s" transform="matrix(1,0,0,1,2172,912.4999500000004) translate(64.94506172839507 52.48888888888888)"/><path d="M2480 906.5a6 6 0 0 1 6-6h148a6 6 0 0 1 6 6v114c-26.72-20.04-43.36-20.04-53.44-20.04-16 0-37.28 20.04-53.28 20.04-9.92 0-26.72 0-53.28-20.04z" stroke="#3a414a" fill="#6db1ff"/><use xlink:href="#q" transform="matrix(1,0,0,1,2492,912.4999500000004) translate(14.725617283950633 42.48888888888889)"/><use xlink:href="#s" transform="matrix(1,0,0,1,2492,912.4999500000004) translate(69.02870370370371 42.48888888888889)"/><path d="M2321 960.5h142.12" stroke="#3a414a" fill="none"/><path d="M2321 961h-.5v-1h.5z" stroke="#3a414a" stroke-width=".05" fill="#3a414a"/><path d="M2477.88 960.5l-14.26 4.63v-9.26z" stroke="#3a414a" fill="#3a414a"/><path d="M2641 960.5h107a12 12 0 0 0 12-12V532a12 12 0 0 0-12-12h-496a12 12 0 0 0-12 12v31.12" stroke="#3a414a" fill="none"/><path d="M2641 961h-.5v-1h.5z" stroke="#3a414a" stroke-width=".05" fill="#3a414a"/><path d="M2240 577.88l-4.64-14.26h9.28z" stroke="#3a414a" fill="#3a414a"/><path d="M1280 899V716.88" stroke="#3a414a" fill="none"/><path d="M1280.5 899.5h-1v-.5h1z" stroke="#3a414a" stroke-width=".05" fill="#3a414a"/><path d="M1280 702.12l4.63 14.26h-9.27z" stroke="#3a414a" fill="#3a414a"/><path d="M2641 320h67a12 12 0 0 1 12 12v574.26a12 12 0 0 1-12 12h-51.12" stroke="#3a414a" fill="none"/><path d="M2641 320.5h-.5v-1h.5z" stroke="#3a414a" stroke-width=".05" fill="#3a414a"/><path d="M2642.12 918.26l14.26-4.63v9.27z" stroke="#3a414a" fill="#3a414a"/><path d="M1561.33 579V12a12 12 0 0 1 12-12h249.8" stroke="#3a414a" fill="none"/><path d="M1561.83 579.5h-1v-.5h1z" stroke="#3a414a" stroke-width=".05" fill="#3a414a"/><path d="M1837.88 0l-14.26 4.63v-9.27z" stroke="#3a414a" fill="#3a414a"/><path d="M1840-54a6 6 0 0 1 6-6h132a6 6 0 0 1 6 6v96c-24.05-17.03-39.02-17.03-48.1-17.03-14.4 0-33.55 17.03-47.95 17.03-8.93 0-24.05 0-47.95-17.03z" stroke="#3a414a" fill="#6db1ff"/><path d="M1848-45a6 6 0 0 1 6-6h132a6 6 0 0 1 6 6v96c-24.05-17.03-39.02-17.03-48.1-17.03-14.4 0-33.55 17.03-47.95 17.03-8.93 0-24.05 0-47.95-17.03z" stroke="#3a414a" fill="#6db1ff"/><path d="M1856-36a6 6 0 0 1 6-6h132a6 6 0 0 1 6 6v96c-24.05-17.03-39.02-17.03-48.1-17.03-14.4 0-33.55 17.03-47.95 17.03-8.93 0-24.05 0-47.95-17.03z" stroke="#3a414a" fill="#6db1ff"/><use xlink:href="#o" transform="matrix(1,0,0,1,1868,-30) translate(35.96574074074074 21.522222222222222)"/><use xlink:href="#t" transform="matrix(1,0,0,1,1868,-30) translate(26.9567901234568 48.45555555555555)"/><path d="M1559.77 701v567.75a12 12 0 0 0 12 12h251.35" stroke="#3a414a" fill="none"/><path d="M1560.27 701h-1v-.5h1z" stroke="#3a414a" stroke-width=".05" fill="#3a414a"/><path d="M1837.88 1280.75l-14.26 4.63v-9.27z" stroke="#3a414a" fill="#3a414a"/><path d="M1840 1226.75a6 6 0 0 1 6-6h132a6 6 0 0 1 6 6v96c-24.05-17.03-39.02-17.03-48.1-17.03-14.4 0-33.55 17.03-47.95 17.03-8.93 0-24.05 0-47.95-17.03z" stroke="#3a414a" fill="#6db1ff"/><path d="M1848 1235.75a6 6 0 0 1 6-6h132a6 6 0 0 1 6 6v96c-24.05-17.03-39.02-17.03-48.1-17.03-14.4 0-33.55 17.03-47.95 17.03-8.93 0-24.05 0-47.95-17.03z" stroke="#3a414a" fill="#6db1ff"/><path d="M1856 1244.75a6 6 0 0 1 6-6h132a6 6 0 0 1 6 6v96c-24.05-17.03-39.02-17.03-48.1-17.03-14.4 0-33.55 17.03-47.95 17.03-8.93 0-24.05 0-47.95-17.03z" stroke="#3a414a" fill="#6db1ff"/><use xlink:href="#q" transform="matrix(1,0,0,1,1868,1250.7499250000005) translate(14.768209876543224 34.98888888888889)"/><use xlink:href="#u" transform="matrix(1,0,0,1,1868,1250.7499250000005) translate(69.0712962962963 34.98888888888889)"/><path d="M2001 0h142.12" stroke="#3a414a" fill="none"/><path d="M2001 .5h-.5v-1h.5z" stroke="#3a414a" stroke-width=".05" fill="#3a414a"/><path d="M2157.88 0l-14.26 4.63v-9.27z" stroke="#3a414a" fill="#3a414a"/><path d="M2160-54a6 6 0 0 1 6-6h148a6 6 0 0 1 6 6V54a6 6 0 0 1-6 6h-148a6 6 0 0 1-6-6z" stroke="#3a414a" fill="#6db1ff"/><use xlink:href="#r" transform="matrix(1,0,0,1,2172,-48) translate(17.500000000000007 52.48888888888888)"/><use xlink:href="#v" transform="matrix(1,0,0,1,2172,-48) translate(63.635802469135804 52.48888888888888)"/><path d="M1681 640h142.12" stroke="#3a414a" fill="none"/><path d="M1681 640.5h-.5v-1h.5z" stroke="#3a414a" stroke-width=".05" fill="#3a414a"/><path d="M1837.88 640l-14.26 4.63v-9.26z" stroke="#3a414a" fill="#3a414a"/><path d="M1840 906.5a6 6 0 0 1 6-6h132a6 6 0 0 1 6 6v96c-24.05-17.03-39.02-17.03-48.1-17.03-14.4 0-33.55 17.03-47.95 17.03-8.93 0-24.05 0-47.95-17.03z" stroke="#3a414a" fill="#6db1ff"/><path d="M1848 915.5a6 6 0 0 1 6-6h132a6 6 0 0 1 6 6v96c-24.05-17.03-39.02-17.03-48.1-17.03-14.4 0-33.55 17.03-47.95 17.03-8.93 0-24.05 0-47.95-17.03z" stroke="#3a414a" fill="#6db1ff"/><path d="M1856 924.5a6 6 0 0 1 6-6h132a6 6 0 0 1 6 6v96c-24.05-17.03-39.02-17.03-48.1-17.03-14.4 0-33.55 17.03-47.95 17.03-8.93 0-24.05 0-47.95-17.03z" stroke="#3a414a" fill="#6db1ff"/><use xlink:href="#w" transform="matrix(1,0,0,1,1861,923.4999500000004) translate(8.114506172839526 41.98888888888889)"/><use xlink:href="#x" transform="matrix(1,0,0,1,1861,923.4999500000004) translate(62.4175925925926 41.98888888888889)"/><path d="M1840 266a6 6 0 0 1 6-6h132a6 6 0 0 1 6 6v96c-24.05-17.03-39.02-17.03-48.1-17.03-14.4 0-33.55 17.03-47.95 17.03-8.93 0-24.05 0-47.95-17.03z" stroke="#3a414a" fill="#6db1ff"/><path d="M1848 275a6 6 0 0 1 6-6h132a6 6 0 0 1 6 6v96c-24.05-17.03-39.02-17.03-48.1-17.03-14.4 0-33.55 17.03-47.95 17.03-8.93 0-24.05 0-47.95-17.03z" stroke="#3a414a" fill="#6db1ff"/><path d="M1856 284a6 6 0 0 1 6-6h132a6 6 0 0 1 6 6v96c-24.05-17.03-39.02-17.03-48.1-17.03-14.4 0-33.55 17.03-47.95 17.03-8.93 0-24.05 0-47.95-17.03z" stroke="#3a414a" fill="#6db1ff"/><use xlink:href="#y" transform="matrix(1,0,0,1,1861,283) translate(42.96574074074074 28.522222222222222)"/><use xlink:href="#z" transform="matrix(1,0,0,1,1861,283) translate(15.28425925925928 55.45555555555555)"/><path d="M1920 1016.48V1068a12 12 0 0 0 12 12h616a12 12 0 0 0 12-12v-40.8" stroke="#3a414a" fill="none"/><path d="M1920.5 1016.5h-1v-.3l1-.45z" stroke="#3a414a" stroke-width=".05" fill="#3a414a"/><path d="M2560 1012.44l4.64 14.27h-9.28z" stroke="#3a414a" fill="#3a414a"/><path d="M1920 696.23V748a12 12 0 0 0 12 12h616a12 12 0 0 0 12-12v-41.04" stroke="#3a414a" fill="none"/><path d="M1920.5 696.24h-1v-.28l1-.46z" stroke="#3a414a" stroke-width=".05" fill="#3a414a"/><path d="M2560 692.2l4.64 14.26h-9.28z" stroke="#3a414a" fill="#3a414a"/><path d="M2641 960.6h107a12 12 0 0 0 12-12V212a12 12 0 0 0-12-12h-816a12 12 0 0 0-12 12v31.12" stroke="#3a414a" fill="none"/><path d="M2641 961.1h-.5v-1h.5z" stroke="#3a414a" stroke-width=".05" fill="#3a414a"/><path d="M1920 257.88l-4.63-14.26h9.27z" stroke="#3a414a" fill="#3a414a"/><path d="M2641 640.36h67a12 12 0 0 1 12 12v253.9a12 12 0 0 1-12 12h-51.12" stroke="#3a414a" fill="none"/><path d="M2641 640.86h-.5v-1h.5z" stroke="#3a414a" stroke-width=".05" fill="#3a414a"/><path d="M2642.12 918.26l14.26-4.63v9.27z" stroke="#3a414a" fill="#3a414a"/><path d="M2641 960.6h107a12 12 0 0 0 12-12V532a12 12 0 0 0-12-12h-816a12 12 0 0 0-12 12v31.37" stroke="#3a414a" fill="none"/><path d="M2641 961.1h-.5v-1h.5z" stroke="#3a414a" stroke-width=".05" fill="#3a414a"/><path d="M1920 578.13l-4.63-14.26h9.27z" stroke="#3a414a" fill="#3a414a"/><path d="M1920 375.98V428a12 12 0 0 0 12 12h616a12 12 0 0 0 12-12v-41.3" stroke="#3a414a" fill="none"/><path d="M1920.5 376h-1v-.3l1-.45z" stroke="#3a414a" stroke-width=".05" fill="#3a414a"/><path d="M2560 371.94l4.64 14.27h-9.28z" stroke="#3a414a" fill="#3a414a"/><path d="M2321 0h142.12" stroke="#3a414a" fill="none"/><path d="M2321 .5h-.5v-1h.5z" stroke="#3a414a" stroke-width=".05" fill="#3a414a"/><path d="M2477.88 0l-14.26 4.63v-9.27z" stroke="#3a414a" fill="#3a414a"/><path d="M2480-54a6 6 0 0 1 6-6h148a6 6 0 0 1 6 6V60c-26.72-20.04-43.36-20.04-53.44-20.04-16 0-37.28 20.04-53.28 20.04-9.92 0-26.72 0-53.28-20.04z" stroke="#3a414a" fill="#6db1ff"/><use xlink:href="#q" transform="matrix(1,0,0,1,2492,-48) translate(13.41635802469137 42.48888888888889)"/><use xlink:href="#v" transform="matrix(1,0,0,1,2492,-48) translate(67.71944444444443 42.48888888888889)"/><path d="M2641 960.6h107a12 12 0 0 0 12-12V212a12 12 0 0 0-12-12h-496a12 12 0 0 0-12 12v31.12" stroke="#3a414a" fill="none"/><path d="M2641 961.1h-.5v-1h.5z" stroke="#3a414a" stroke-width=".05" fill="#3a414a"/><path d="M2240 257.88l-4.64-14.26h9.28z" stroke="#3a414a" fill="#3a414a"/><path d="M2641 960.6h107a12 12 0 0 0 12-12V-108a12 12 0 0 0-12-12h-496a12 12 0 0 0-12 12v31.12" stroke="#3a414a" fill="none"/><path d="M2641 961.1h-.5v-1h.5z" stroke="#3a414a" stroke-width=".05" fill="#3a414a"/><path d="M2240-62.12l-4.64-14.26h9.28z" stroke="#3a414a" fill="#3a414a"/><path d="M2641 960.6h107a12 12 0 0 0 12-12V-108a12 12 0 0 0-12-12h-816a12 12 0 0 0-12 12v31.12" stroke="#3a414a" fill="none"/><path d="M2641 961.1h-.5v-1h.5z" stroke="#3a414a" stroke-width=".05" fill="#3a414a"/><path d="M1920-62.12l-4.63-14.26h9.27z" stroke="#3a414a" fill="#3a414a"/><path d="M1920 55.98v27.5a12 12 0 0 0 12 12h620.1a12 12 0 0 0 12-12V64.64" stroke="#3a414a" fill="none"/><path d="M1920.5 56h-1v-.3l1-.45z" stroke="#3a414a" stroke-width=".05" fill="#3a414a"/><path d="M2564.1 49.88l4.64 14.26h-9.27z" stroke="#3a414a" fill="#3a414a"/><path d="M2641 0h67a12 12 0 0 1 12 12v895.34a12 12 0 0 1-12 12h-51.12" stroke="#3a414a" fill="none"/><path d="M2641 .5h-.5v-1h.5z" stroke="#3a414a" stroke-width=".05" fill="#3a414a"/><path d="M2642.12 919.34l14.26-4.63v9.27z" stroke="#3a414a" fill="#3a414a"/><path d="M2560-61v-47a12 12 0 0 0-12-12h-296a12 12 0 0 0-12 12v31.12" stroke="#3a414a" fill="none"/><path d="M2560.5-60.5h-1v-.5h1z" stroke="#3a414a" stroke-width=".05" fill="#3a414a"/><path d="M2240-62.12l-4.64-14.26h9.28z" stroke="#3a414a" fill="#3a414a"/><path d="M2560-61v-47a12 12 0 0 0-12-12h-616a12 12 0 0 0-12 12v31.12" stroke="#3a414a" fill="none"/><path d="M2560.5-60.5h-1v-.5h1z" stroke="#3a414a" stroke-width=".05" fill="#3a414a"/><path d="M1920-62.12l-4.63-14.26h9.27z" stroke="#3a414a" fill="#3a414a"/><path d="M2560 259v-47a12 12 0 0 0-12-12h-296a12 12 0 0 0-12 12v31.12" stroke="#3a414a" fill="none"/><path d="M2560.5 259.5h-1v-.5h1z" stroke="#3a414a" stroke-width=".05" fill="#3a414a"/><path d="M2240 257.88l-4.64-14.26h9.28z" stroke="#3a414a" fill="#3a414a"/><path d="M2560 259v-47a12 12 0 0 0-12-12h-616a12 12 0 0 0-12 12v31.12" stroke="#3a414a" fill="none"/><path d="M2560.5 259.5h-1v-.5h1z" stroke="#3a414a" stroke-width=".05" fill="#3a414a"/><path d="M1920 257.88l-4.63-14.26h9.27z" stroke="#3a414a" fill="#3a414a"/><path d="M2560 579.25V532a12 12 0 0 0-12-12h-296a12 12 0 0 0-12 12v31.12" stroke="#3a414a" fill="none"/><path d="M2560.5 579.75h-1v-.5h1z" stroke="#3a414a" stroke-width=".05" fill="#3a414a"/><path d="M2240 577.88l-4.64-14.26h9.28z" stroke="#3a414a" fill="#3a414a"/><path d="M2560 579.25V532a12 12 0 0 0-12-12h-616a12 12 0 0 0-12 12v31.37" stroke="#3a414a" fill="none"/><path d="M2560.5 579.75h-1v-.5h1z" stroke="#3a414a" stroke-width=".05" fill="#3a414a"/><path d="M1920 578.13l-4.63-14.26h9.27z" stroke="#3a414a" fill="#3a414a"/><path d="M2560 899.5V852a12 12 0 0 0-12-12h-616a12 12 0 0 0-12 12v31.62" stroke="#3a414a" fill="none"/><path d="M2560.5 900h-1v-.5h1z" stroke="#3a414a" stroke-width=".05" fill="#3a414a"/><path d="M1920 898.38l-4.63-14.26h9.27z" stroke="#3a414a" fill="#3a414a"/><defs><path fill="#3a414a" d="M185-189c-5-48-123-54-124 2 14 75 158 14 163 119 3 78-121 87-175 55-17-10-28-26-33-46l33-7c5 56 141 63 141-1 0-78-155-14-162-118-5-82 145-84 179-34 5 7 8 16 11 25" id="A"/><path fill="#3a414a" d="M59-47c-2 24 18 29 38 22v24C64 9 27 4 27-40v-127H5v-23h24l9-43h21v43h35v23H59v120" id="B"/><path fill="#3a414a" d="M141-36C126-15 110 5 73 4 37 3 15-17 15-53c-1-64 63-63 125-63 3-35-9-54-41-54-24 1-41 7-42 31l-33-3c5-37 33-52 76-52 45 0 72 20 72 64v82c-1 20 7 32 28 27v20c-31 9-61-2-59-35zM48-53c0 20 12 33 32 33 41-3 63-29 60-74-43 2-92-5-92 41" id="C"/><path fill="#3a414a" d="M114-163C36-179 61-72 57 0H25l-1-190h30c1 12-1 29 2 39 6-27 23-49 58-41v29" id="D"/><g id="a"><use transform="matrix(0.06172839506172839,0,0,0.06172839506172839,0,0)" xlink:href="#A"/><use transform="matrix(0.06172839506172839,0,0,0.06172839506172839,14.814814814814813,0)" xlink:href="#B"/><use transform="matrix(0.06172839506172839,0,0,0.06172839506172839,20.98765432098765,0)" xlink:href="#C"/><use transform="matrix(0.06172839506172839,0,0,0.06172839506172839,33.33333333333333,0)" xlink:href="#D"/><use transform="matrix(0.06172839506172839,0,0,0.06172839506172839,40.679012345679006,0)" xlink:href="#B"/></g><path fill="#3a414a" d="M232-93c-1 65-40 97-104 97C67 4 28-28 28-90v-158h33c8 89-33 224 67 224 102 0 64-133 71-224h33v155" id="E"/><path fill="#3a414a" d="M135-143c-3-34-86-38-87 0 15 53 115 12 119 90S17 21 10-45l28-5c4 36 97 45 98 0-10-56-113-15-118-90-4-57 82-63 122-42 12 7 21 19 24 35" id="F"/><path fill="#3a414a" d="M100-194c63 0 86 42 84 106H49c0 40 14 67 53 68 26 1 43-12 49-29l28 8c-11 28-37 45-77 45C44 4 14-33 15-96c1-61 26-98 85-98zm52 81c6-60-76-77-97-28-3 7-6 17-6 28h103" id="G"/><g id="b"><use transform="matrix(0.06172839506172839,0,0,0.06172839506172839,0,0)" xlink:href="#E"/><use transform="matrix(0.06172839506172839,0,0,0.06172839506172839,15.987654320987653,0)" xlink:href="#F"/><use transform="matrix(0.06172839506172839,0,0,0.06172839506172839,27.098765432098766,0)" xlink:href="#G"/><use transform="matrix(0.06172839506172839,0,0,0.06172839506172839,39.44444444444444,0)" xlink:href="#D"/></g><path fill="#3a414a" d="M96-169c-40 0-48 33-48 73s9 75 48 75c24 0 41-14 43-38l32 2c-6 37-31 61-74 61-59 0-76-41-82-99-10-93 101-131 147-64 4 7 5 14 7 22l-32 3c-4-21-16-35-41-35" id="H"/><path fill="#3a414a" d="M24-231v-30h32v30H24zM24 0v-190h32V0H24" id="I"/><path fill="#3a414a" d="M100-194c62-1 85 37 85 99 1 63-27 99-86 99S16-35 15-95c0-66 28-99 85-99zM99-20c44 1 53-31 53-75 0-43-8-75-51-75s-53 32-53 75 10 74 51 75" id="J"/><path fill="#3a414a" d="M117-194c89-4 53 116 60 194h-32v-121c0-31-8-49-39-48C34-167 62-67 57 0H25l-1-190h30c1 10-1 24 2 32 11-22 29-35 61-36" id="K"/><g id="c"><use transform="matrix(0.06172839506172839,0,0,0.06172839506172839,0,0)" xlink:href="#H"/><use transform="matrix(0.06172839506172839,0,0,0.06172839506172839,11.11111111111111,0)" xlink:href="#D"/><use transform="matrix(0.06172839506172839,0,0,0.06172839506172839,18.45679012345679,0)" xlink:href="#G"/><use transform="matrix(0.06172839506172839,0,0,0.06172839506172839,30.80246913580247,0)" xlink:href="#C"/><use transform="matrix(0.06172839506172839,0,0,0.06172839506172839,43.148148148148145,0)" xlink:href="#B"/><use transform="matrix(0.06172839506172839,0,0,0.06172839506172839,49.32098765432099,0)" xlink:href="#I"/><use transform="matrix(0.06172839506172839,0,0,0.06172839506172839,54.19753086419753,0)" xlink:href="#J"/><use transform="matrix(0.06172839506172839,0,0,0.06172839506172839,66.54320987654322,0)" xlink:href="#K"/></g><path fill="#3a414a" d="M33 0v-248h34V0H33" id="L"/><path fill="#3a414a" d="M85-194c31 0 48 13 60 33l-1-100h32l1 261h-30c-2-10 0-23-3-31C134-8 116 4 85 4 32 4 16-35 15-94c0-66 23-100 70-100zm9 24c-40 0-46 34-46 75 0 40 6 74 45 74 42 0 51-32 51-76 0-42-9-74-50-73" id="M"/><path fill="#3a414a" d="M101-234c-31-9-42 10-38 44h38v23H63V0H32v-167H5v-23h27c-7-52 17-82 69-68v24" id="N"/><g id="d"><use transform="matrix(0.06172839506172839,0,0,0.06172839506172839,0,0)" xlink:href="#L"/><use transform="matrix(0.06172839506172839,0,0,0.06172839506172839,6.172839506172839,0)" xlink:href="#M"/><use transform="matrix(0.06172839506172839,0,0,0.06172839506172839,18.51851851851852,0)" xlink:href="#G"/><use transform="matrix(0.06172839506172839,0,0,0.06172839506172839,30.864197530864196,0)" xlink:href="#K"/><use transform="matrix(0.06172839506172839,0,0,0.06172839506172839,43.20987654320987,0)" xlink:href="#B"/><use transform="matrix(0.06172839506172839,0,0,0.06172839506172839,49.382716049382715,0)" xlink:href="#I"/><use transform="matrix(0.06172839506172839,0,0,0.06172839506172839,54.25925925925926,0)" xlink:href="#N"/><use transform="matrix(0.06172839506172839,0,0,0.06172839506172839,60.4320987654321,0)" xlink:href="#I"/><use transform="matrix(0.06172839506172839,0,0,0.06172839506172839,65.30864197530865,0)" xlink:href="#H"/><use transform="matrix(0.06172839506172839,0,0,0.06172839506172839,76.41975308641976,0)" xlink:href="#C"/><use transform="matrix(0.06172839506172839,0,0,0.06172839506172839,88.76543209876544,0)" xlink:href="#B"/><use transform="matrix(0.06172839506172839,0,0,0.06172839506172839,94.93827160493828,0)" xlink:href="#I"/><use transform="matrix(0.06172839506172839,0,0,0.06172839506172839,99.81481481481482,0)" xlink:href="#J"/><use transform="matrix(0.06172839506172839,0,0,0.06172839506172839,112.16049382716051,0)" xlink:href="#K"/></g><path fill="#3a414a" d="M30 0v-248h33v221h125V0H30" id="O"/><path fill="#3a414a" d="M177-190C167-65 218 103 67 71c-23-6-38-20-44-43l32-5c15 47 100 32 89-28v-30C133-14 115 1 83 1 29 1 15-40 15-95c0-56 16-97 71-98 29-1 48 16 59 35 1-10 0-23 2-32h30zM94-22c36 0 50-32 50-73 0-42-14-75-50-75-39 0-46 34-46 75s6 73 46 73" id="P"/><g id="e"><use transform="matrix(0.06234567901234567,0,0,0.06234567901234567,0,0)" xlink:href="#O"/><use transform="matrix(0.06234567901234567,0,0,0.06234567901234567,12.469135802469133,0)" xlink:href="#J"/><use transform="matrix(0.06234567901234567,0,0,0.06234567901234567,24.938271604938265,0)" xlink:href="#P"/><use transform="matrix(0.06234567901234567,0,0,0.06234567901234567,37.4074074074074,0)" xlink:href="#I"/><use transform="matrix(0.06234567901234567,0,0,0.06234567901234567,42.332716049382704,0)" xlink:href="#K"/></g><path fill="#3a414a" d="M212-179c-10-28-35-45-73-45-59 0-87 40-87 99 0 60 29 101 89 101 43 0 62-24 78-52l27 14C228-24 195 4 139 4 59 4 22-46 18-125c-6-104 99-153 187-111 19 9 31 26 39 46" id="Q"/><g id="f"><use transform="matrix(0.06234567901234567,0,0,0.06234567901234567,0,0)" xlink:href="#Q"/><use transform="matrix(0.06234567901234567,0,0,0.06234567901234567,16.147530864197527,0)" xlink:href="#D"/><use transform="matrix(0.06234567901234567,0,0,0.06234567901234567,23.566666666666663,0)" xlink:href="#G"/><use transform="matrix(0.06234567901234567,0,0,0.06234567901234567,36.035802469135795,0)" xlink:href="#C"/><use transform="matrix(0.06234567901234567,0,0,0.06234567901234567,48.50493827160493,0)" xlink:href="#B"/><use transform="matrix(0.06234567901234567,0,0,0.06234567901234567,54.7395061728395,0)" xlink:href="#G"/></g><path fill="#3a414a" d="M84 4C-5 8 30-112 23-190h32v120c0 31 7 50 39 49 72-2 45-101 50-169h31l1 190h-30c-1-10 1-25-2-33-11 22-28 36-60 37" id="R"/><g id="g"><use transform="matrix(0.06234567901234567,0,0,0.06234567901234567,0,0)" xlink:href="#C"/><use transform="matrix(0.06234567901234567,0,0,0.06234567901234567,12.469135802469133,0)" xlink:href="#H"/><use transform="matrix(0.06234567901234567,0,0,0.06234567901234567,23.691358024691354,0)" xlink:href="#H"/><use transform="matrix(0.06234567901234567,0,0,0.06234567901234567,34.913580246913575,0)" xlink:href="#J"/><use transform="matrix(0.06234567901234567,0,0,0.06234567901234567,47.38271604938271,0)" xlink:href="#R"/><use transform="matrix(0.06234567901234567,0,0,0.06234567901234567,59.85185185185184,0)" xlink:href="#K"/><use transform="matrix(0.06234567901234567,0,0,0.06234567901234567,72.32098765432097,0)" xlink:href="#B"/></g><path fill="#3a414a" d="M137-103V0h-34v-103L8-248h37l75 118 75-118h37" id="S"/><g id="h"><use transform="matrix(0.06234567901234567,0,0,0.06234567901234567,0,0)" xlink:href="#S"/><use transform="matrix(0.06234567901234567,0,0,0.06234567901234567,12.905555555555553,0)" xlink:href="#G"/><use transform="matrix(0.06234567901234567,0,0,0.06234567901234567,25.374691358024684,0)" xlink:href="#F"/></g><path fill="#3a414a" d="M190 0L58-211 59 0H30v-248h39L202-35l-2-213h31V0h-41" id="T"/><g id="i"><use transform="matrix(0.06234567901234567,0,0,0.06234567901234567,0,0)" xlink:href="#T"/><use transform="matrix(0.06234567901234567,0,0,0.06234567901234567,16.147530864197527,0)" xlink:href="#J"/></g><path fill="#3a414a" d="M160-131c35 5 61 23 61 61C221 17 115-2 30 0v-248c76 3 177-17 177 60 0 33-19 50-47 57zm-97-11c50-1 110 9 110-42 0-47-63-36-110-37v79zm0 115c55-2 124 14 124-45 0-56-70-42-124-44v89" id="U"/><path fill="#3a414a" d="M179-190L93 31C79 59 56 82 12 73V49c39 6 53-20 64-50L1-190h34L92-34l54-156h33" id="V"/><g id="j"><use transform="matrix(0.06234567901234567,0,0,0.06234567901234567,0,0)" xlink:href="#U"/><use transform="matrix(0.06234567901234567,0,0,0.06234567901234567,14.96296296296296,0)" xlink:href="#V"/><use transform="matrix(0.06234567901234567,0,0,0.06234567901234567,26.18518518518518,0)" xlink:href="#G"/></g><path fill="#3a414a" d="M30-248c118-7 216 8 213 122C240-48 200 0 122 0H30v-248zM63-27c89 8 146-16 146-99s-60-101-146-95v194" id="W"/><path fill="#3a414a" d="M106-169C34-169 62-67 57 0H25v-261h32l-1 103c12-21 28-36 61-36 89 0 53 116 60 194h-32v-121c2-32-8-49-39-48" id="X"/><path fill="#3a414a" d="M115-194c53 0 69 39 70 98 0 66-23 100-70 100C84 3 66-7 56-30L54 0H23l1-261h32v101c10-23 28-34 59-34zm-8 174c40 0 45-34 45-75 0-40-5-75-45-74-42 0-51 32-51 76 0 43 10 73 51 73" id="Y"/><g id="k"><use transform="matrix(0.06234567901234567,0,0,0.06234567901234567,0,0)" xlink:href="#W"/><use transform="matrix(0.06234567901234567,0,0,0.06234567901234567,16.147530864197527,0)" xlink:href="#C"/><use transform="matrix(0.06234567901234567,0,0,0.06234567901234567,28.61666666666666,0)" xlink:href="#F"/><use transform="matrix(0.06234567901234567,0,0,0.06234567901234567,39.83888888888888,0)" xlink:href="#X"/><use transform="matrix(0.06234567901234567,0,0,0.06234567901234567,52.308024691358014,0)" xlink:href="#Y"/><use transform="matrix(0.06234567901234567,0,0,0.06234567901234567,64.77716049382715,0)" xlink:href="#J"/><use transform="matrix(0.06234567901234567,0,0,0.06234567901234567,77.2462962962963,0)" xlink:href="#C"/><use transform="matrix(0.06234567901234567,0,0,0.06234567901234567,89.71543209876543,0)" xlink:href="#D"/><use transform="matrix(0.06234567901234567,0,0,0.06234567901234567,97.13456790123456,0)" xlink:href="#M"/></g><g id="l"><use transform="matrix(0.06234567901234567,0,0,0.06234567901234567,0,0)" xlink:href="#Q"/><use transform="matrix(0.06234567901234567,0,0,0.06234567901234567,16.147530864197527,0)" xlink:href="#D"/><use transform="matrix(0.06234567901234567,0,0,0.06234567901234567,23.566666666666663,0)" xlink:href="#G"/><use transform="matrix(0.06234567901234567,0,0,0.06234567901234567,36.035802469135795,0)" xlink:href="#C"/><use transform="matrix(0.06234567901234567,0,0,0.06234567901234567,48.50493827160493,0)" xlink:href="#B"/><use transform="matrix(0.06234567901234567,0,0,0.06234567901234567,54.7395061728395,0)" xlink:href="#G"/></g><path fill="#3a414a" d="M145-31C134-9 116 4 85 4 32 4 16-35 15-94c0-59 17-99 70-100 32-1 48 14 60 33 0-11-1-24 2-32h30l-1 268h-32zM93-21c41 0 51-33 51-76s-8-73-50-73c-40 0-46 35-46 75s5 74 45 74" id="Z"/><g id="m"><use transform="matrix(0.06234567901234567,0,0,0.06234567901234567,0,0)" xlink:href="#Z"/><use transform="matrix(0.06234567901234567,0,0,0.06234567901234567,12.469135802469133,0)" xlink:href="#R"/><use transform="matrix(0.06234567901234567,0,0,0.06234567901234567,24.938271604938265,0)" xlink:href="#J"/><use transform="matrix(0.06234567901234567,0,0,0.06234567901234567,37.4074074074074,0)" xlink:href="#B"/><use transform="matrix(0.06234567901234567,0,0,0.06234567901234567,43.64197530864196,0)" xlink:href="#C"/><use transform="matrix(0.06234567901234567,0,0,0.06234567901234567,56.11111111111109,0)" xlink:href="#B"/><use transform="matrix(0.06234567901234567,0,0,0.06234567901234567,62.345679012345656,0)" xlink:href="#I"/><use transform="matrix(0.06234567901234567,0,0,0.06234567901234567,67.27098765432096,0)" xlink:href="#J"/><use transform="matrix(0.06234567901234567,0,0,0.06234567901234567,79.74012345679009,0)" xlink:href="#K"/></g><path fill="#3a414a" d="M108 0H70L1-190h34L89-25l56-165h34" id="aa"/><g id="n"><use transform="matrix(0.06234567901234567,0,0,0.06234567901234567,0,0)" xlink:href="#I"/><use transform="matrix(0.06234567901234567,0,0,0.06234567901234567,4.925308641975308,0)" xlink:href="#K"/><use transform="matrix(0.06234567901234567,0,0,0.06234567901234567,17.39444444444444,0)" xlink:href="#aa"/><use transform="matrix(0.06234567901234567,0,0,0.06234567901234567,28.61666666666666,0)" xlink:href="#J"/><use transform="matrix(0.06234567901234567,0,0,0.06234567901234567,41.08580246913579,0)" xlink:href="#I"/><use transform="matrix(0.06234567901234567,0,0,0.06234567901234567,46.0111111111111,0)" xlink:href="#H"/><use transform="matrix(0.06234567901234567,0,0,0.06234567901234567,57.23333333333332,0)" xlink:href="#G"/></g><path fill="#3a414a" d="M137 0h-34L2-248h35l83 218 83-218h36" id="ab"/><path fill="#3a414a" d="M206 0h-36l-40-164L89 0H53L-1-190h32L70-26l43-164h34l41 164 42-164h31" id="ac"/><g id="o"><use transform="matrix(0.06234567901234567,0,0,0.06234567901234567,0,0)" xlink:href="#ab"/><use transform="matrix(0.06234567901234567,0,0,0.06234567901234567,14.526543209876541,0)" xlink:href="#I"/><use transform="matrix(0.06234567901234567,0,0,0.06234567901234567,19.45185185185185,0)" xlink:href="#G"/><use transform="matrix(0.06234567901234567,0,0,0.06234567901234567,31.92098765432098,0)" xlink:href="#ac"/></g><g id="p"><use transform="matrix(0.06234567901234567,0,0,0.06234567901234567,0,0)" xlink:href="#I"/><use transform="matrix(0.06234567901234567,0,0,0.06234567901234567,4.925308641975308,0)" xlink:href="#K"/><use transform="matrix(0.06234567901234567,0,0,0.06234567901234567,17.39444444444444,0)" xlink:href="#aa"/><use transform="matrix(0.06234567901234567,0,0,0.06234567901234567,28.61666666666666,0)" xlink:href="#J"/><use transform="matrix(0.06234567901234567,0,0,0.06234567901234567,41.08580246913579,0)" xlink:href="#I"/><use transform="matrix(0.06234567901234567,0,0,0.06234567901234567,46.0111111111111,0)" xlink:href="#H"/><use transform="matrix(0.06234567901234567,0,0,0.06234567901234567,57.23333333333332,0)" xlink:href="#G"/><use transform="matrix(0.06234567901234567,0,0,0.06234567901234567,69.70246913580246,0)" xlink:href="#F"/></g><g id="q"><use transform="matrix(0.06234567901234567,0,0,0.06234567901234567,0,0)" xlink:href="#ab"/><use transform="matrix(0.06234567901234567,0,0,0.06234567901234567,14.526543209876541,0)" xlink:href="#I"/><use transform="matrix(0.06234567901234567,0,0,0.06234567901234567,19.45185185185185,0)" xlink:href="#G"/><use transform="matrix(0.06234567901234567,0,0,0.06234567901234567,31.92098765432098,0)" xlink:href="#ac"/></g><path fill="#3a414a" d="M205 0l-28-72H64L36 0H1l101-248h38L239 0h-34zm-38-99l-47-123c-12 45-31 82-46 123h93" id="ad"/><g id="r"><use transform="matrix(0.06234567901234567,0,0,0.06234567901234567,0,0)" xlink:href="#ad"/><use transform="matrix(0.06234567901234567,0,0,0.06234567901234567,14.96296296296296,0)" xlink:href="#M"/><use transform="matrix(0.06234567901234567,0,0,0.06234567901234567,27.432098765432094,0)" xlink:href="#M"/></g><path fill="#3a414a" d="M24 0v-261h32V0H24" id="ae"/><g id="s"><use transform="matrix(0.06234567901234567,0,0,0.06234567901234567,0,0)" xlink:href="#H"/><use transform="matrix(0.06234567901234567,0,0,0.06234567901234567,11.22222222222222,0)" xlink:href="#ae"/><use transform="matrix(0.06234567901234567,0,0,0.06234567901234567,16.147530864197527,0)" xlink:href="#I"/><use transform="matrix(0.06234567901234567,0,0,0.06234567901234567,21.072839506172834,0)" xlink:href="#G"/><use transform="matrix(0.06234567901234567,0,0,0.06234567901234567,33.541975308641966,0)" xlink:href="#K"/><use transform="matrix(0.06234567901234567,0,0,0.06234567901234567,46.0111111111111,0)" xlink:href="#B"/></g><g id="t"><use transform="matrix(0.06234567901234567,0,0,0.06234567901234567,0,0)" xlink:href="#G"/><use transform="matrix(0.06234567901234567,0,0,0.06234567901234567,12.469135802469133,0)" xlink:href="#aa"/><use transform="matrix(0.06234567901234567,0,0,0.06234567901234567,23.691358024691354,0)" xlink:href="#G"/><use transform="matrix(0.06234567901234567,0,0,0.06234567901234567,36.16049382716049,0)" xlink:href="#K"/><use transform="matrix(0.06234567901234567,0,0,0.06234567901234567,48.62962962962962,0)" xlink:href="#B"/><use transform="matrix(0.06234567901234567,0,0,0.06234567901234567,54.86419753086419,0)" xlink:href="#F"/></g><path fill="#3a414a" d="M194 0L95-120 63-95V0H30v-248h33v124l119-124h40L117-140 236 0h-42" id="af"/><path fill="#3a414a" d="M30-248c87 1 191-15 191 75 0 78-77 80-158 76V0H30v-248zm33 125c57 0 124 11 124-50 0-59-68-47-124-48v98" id="ag"/><g id="u"><use transform="matrix(0.06234567901234567,0,0,0.06234567901234567,0,0)" xlink:href="#af"/><use transform="matrix(0.06234567901234567,0,0,0.06234567901234567,14.96296296296296,0)" xlink:href="#ag"/><use transform="matrix(0.06234567901234567,0,0,0.06234567901234567,29.92592592592592,0)" xlink:href="#L"/></g><g id="v"><use transform="matrix(0.06234567901234567,0,0,0.06234567901234567,0,0)" xlink:href="#G"/><use transform="matrix(0.06234567901234567,0,0,0.06234567901234567,12.469135802469133,0)" xlink:href="#aa"/><use transform="matrix(0.06234567901234567,0,0,0.06234567901234567,23.691358024691354,0)" xlink:href="#G"/><use transform="matrix(0.06234567901234567,0,0,0.06234567901234567,36.16049382716049,0)" xlink:href="#K"/><use transform="matrix(0.06234567901234567,0,0,0.06234567901234567,48.62962962962962,0)" xlink:href="#B"/></g><g id="w"><use transform="matrix(0.06234567901234567,0,0,0.06234567901234567,0,0)" xlink:href="#ab"/><use transform="matrix(0.06234567901234567,0,0,0.06234567901234567,14.526543209876541,0)" xlink:href="#I"/><use transform="matrix(0.06234567901234567,0,0,0.06234567901234567,19.45185185185185,0)" xlink:href="#G"/><use transform="matrix(0.06234567901234567,0,0,0.06234567901234567,31.92098765432098,0)" xlink:href="#ac"/></g><g id="x"><use transform="matrix(0.06234567901234567,0,0,0.06234567901234567,0,0)" xlink:href="#H"/><use transform="matrix(0.06234567901234567,0,0,0.06234567901234567,11.22222222222222,0)" xlink:href="#ae"/><use transform="matrix(0.06234567901234567,0,0,0.06234567901234567,16.147530864197527,0)" xlink:href="#I"/><use transform="matrix(0.06234567901234567,0,0,0.06234567901234567,21.072839506172834,0)" xlink:href="#G"/><use transform="matrix(0.06234567901234567,0,0,0.06234567901234567,33.541975308641966,0)" xlink:href="#K"/><use transform="matrix(0.06234567901234567,0,0,0.06234567901234567,46.0111111111111,0)" xlink:href="#B"/><use transform="matrix(0.06234567901234567,0,0,0.06234567901234567,52.24567901234566,0)" xlink:href="#F"/></g><g id="y"><use transform="matrix(0.06234567901234567,0,0,0.06234567901234567,0,0)" xlink:href="#ab"/><use transform="matrix(0.06234567901234567,0,0,0.06234567901234567,14.526543209876541,0)" xlink:href="#I"/><use transform="matrix(0.06234567901234567,0,0,0.06234567901234567,19.45185185185185,0)" xlink:href="#G"/><use transform="matrix(0.06234567901234567,0,0,0.06234567901234567,31.92098765432098,0)" xlink:href="#ac"/></g><g id="z"><use transform="matrix(0.06234567901234567,0,0,0.06234567901234567,0,0)" xlink:href="#Z"/><use transform="matrix(0.06234567901234567,0,0,0.06234567901234567,12.469135802469133,0)" xlink:href="#R"/><use transform="matrix(0.06234567901234567,0,0,0.06234567901234567,24.938271604938265,0)" xlink:href="#J"/><use transform="matrix(0.06234567901234567,0,0,0.06234567901234567,37.4074074074074,0)" xlink:href="#B"/><use transform="matrix(0.06234567901234567,0,0,0.06234567901234567,43.64197530864196,0)" xlink:href="#C"/><use transform="matrix(0.06234567901234567,0,0,0.06234567901234567,56.11111111111109,0)" xlink:href="#B"/><use transform="matrix(0.06234567901234567,0,0,0.06234567901234567,62.345679012345656,0)" xlink:href="#I"/><use transform="matrix(0.06234567901234567,0,0,0.06234567901234567,67.27098765432096,0)" xlink:href="#J"/><use transform="matrix(0.06234567901234567,0,0,0.06234567901234567,79.74012345679009,0)" xlink:href="#K"/><use transform="matrix(0.06234567901234567,0,0,0.06234567901234567,92.20925925925923,0)" xlink:href="#F"/></g></defs></g></svg>